<?xml version="1.0" encoding="UTF-8"?>
<svg id="a" data-name="레이어 1" xmlns="http://www.w3.org/2000/svg" width="512" height="512" viewBox="0 0 512 512">
  <rect width="512" height="512" fill="#fff" stroke-width="0"/>
  <g>
    <path d="M109.237,333.909h-32.498v-125.042h-.861l-35.726,22.383v-28.624l38.525-24.535h30.561v155.819Z" fill="#af1919" stroke-width="0"/>
    <path d="M118.634,259.658c.108-52.621,25.181-83.72,64.135-83.72,31.315,0,52.836,19.801,55.957,45.412h-31.853c-2.582-10.869-11.514-17.648-24.105-17.648-21.199,0-32.283,19.046-32.498,49.715h1.506c7.21-13.882,22.598-21.952,39.816-21.952,28.086,0,48.963,20.984,48.855,50.361.108,31.637-23.782,54.343-58.971,54.235-32.175-.108-62.952-19.37-62.844-76.403ZM181.263,310.451c16.034.108,27.763-12.053,27.763-27.764,0-15.603-11.514-27.656-27.333-27.763-15.926.108-27.978,12.59-28.193,27.763.215,15.281,11.837,27.871,27.763,27.764Z" fill="#af1919" stroke-width="0"/>
    <path d="M246.613,178.09h31.853v83.72h1.722l37.878-44.766h36.587l-43.582,50.576,45.949,66.288h-37.448l-32.175-47.563-8.932,10.115v37.448h-31.853v-155.819Z" fill="#af1919" stroke-width="0"/>
    <path d="M483.022,178.09l-54.019,155.819h-41.539l-53.804-155.819h34.65l11.729,35.941h56.388l11.729-35.941h34.865ZM388.218,239.212l19.477,59.616h1.077l19.477-59.616h-40.03Z" fill="#af1919" stroke-width="0"/>
  </g>
</svg>